<?xml version="1.0" encoding="iso-8859-1"?>
<!-- Generator: Adobe Illustrator 25.2.3, SVG Export Plug-In . SVG Version: 6.00 Build 0)  -->
<svg fill="#22C3E6" version="1.1" baseProfile="basic" id="Layer_1"
	 xmlns="http://www.w3.org/2000/svg" xmlns:xlink="http://www.w3.org/1999/xlink" x="0px" y="0px" viewBox="0 0 48 48"
	 xml:space="preserve">
<line style="fill:none;stroke:#000000;stroke-width:2;stroke-linecap:round;stroke-linejoin:round;stroke-miterlimit:10;" x1="41" y1="19" x2="46" y2="19"/>
<path d="M36.96,18.77c-0.25,3.66-1.87,5.75-3.43,7.76c-1.68,2.18-3.28,4.24-3.5,8.47h-8.06c-0.55,0-1,0.45-1,1s0.45,1,1,1h8.05
	L30,40c0,2.76-2.24,5-5,5h-2c-2.76,0-5-2.24-5-5v-4.76c-0.02-0.06-0.03-0.13-0.03-0.19c-0.21-4.26-1.81-6.33-3.5-8.52
	c-1.71-2.2-3.47-4.48-3.47-8.81c0-4.21,2.17-8.15,5.8-10.55c3.76-2.47,8.32-2.86,12.51-1.06C34.27,8.24,37.35,13.32,36.96,18.77z"/>
<line style="fill:none;stroke:#000000;stroke-width:2;stroke-linecap:round;stroke-linejoin:round;stroke-miterlimit:10;" x1="38.564" y1="7.206" x2="42.45" y2="4.059"/>
<line style="fill:none;stroke:#000000;stroke-width:2;stroke-linecap:round;stroke-linejoin:round;stroke-miterlimit:10;" x1="42.45" y1="33.941" x2="38.564" y2="30.794"/>
<line style="fill:none;stroke:#000000;stroke-width:2;stroke-linecap:round;stroke-linejoin:round;stroke-miterlimit:10;" x1="2" y1="19" x2="7" y2="19"/>
<line style="fill:none;stroke:#000000;stroke-width:2;stroke-linecap:round;stroke-linejoin:round;stroke-miterlimit:10;" x1="5.55" y1="4.059" x2="9.436" y2="7.206"/>
<line style="fill:none;stroke:#000000;stroke-width:2;stroke-linecap:round;stroke-linejoin:round;stroke-miterlimit:10;" x1="9.436" y1="30.794" x2="5.55" y2="33.941"/>
</svg>